# xmcd
#
# Track frame offsets: 
#        150
#        21506
#        41853
#        63244
#        83388
#        104870
#        125357
#        146895
#        166522
#        184521
#        202651
#        224332
#        245597
#        265896
#        287220
#
# Disc length: 4097 seconds
#
# Revision: 1
# Processed by: cddbd v1.5.2PL0 Copyright (c) Steve Scherf et al.
# Submitted via: ExactAudioCopyFreeDBPlugin 1.0
#
DISCID=db0fff0f
DTITLE=Willie Hutch - Sexalicious
DYEAR=2002
DGENRE=Soul
TTITLE0=I've Got To Get You Back
TTITLE1=Sexalicious
TTITLE2=All The Way
TTITLE3=Leave It Alone
TTITLE4=You Can't Take It Back
TTITLE5=Talk To Me
TTITLE6=Rock Your Body
TTITLE7=Super Lover
TTITLE8=I Wouldn't Have It Any Other Way
TTITLE9=Piece Of The Action
TTITLE10=Keep It Real
TTITLE11=Rock This House
TTITLE12=Sexy Dancer
TTITLE13=Um, Hum Good
TTITLE14=Do It To Ya
EXTD=
EXTT0=
EXTT1=
EXTT2=
EXTT3=
EXTT4=
EXTT5=
EXTT6=
EXTT7=
EXTT8=
EXTT9=
EXTT10=
EXTT11=
EXTT12=
EXTT13=
EXTT14=
PLAYORDER=
